<svg xmlns="http://www.w3.org/2000/svg" xmlns:xlink="http://www.w3.org/1999/xlink" viewBox="0 0 512 512" xmlns:v="https://vecta.io/nano"><path d="M463,270.9c0,28.6-70.8,25.8-147.7,23l4.8-94.9l36.2-15.6C415.6,208.8,463,247.6,463,270.9z" fill="#d6afbc"/><path d="M356.3 183.5l-36.2 15.6-4.4 88.4-.1 1.5h0l-.2 4.9c-.7 0-1.4-.1-2-.1h0l-4.6-.2h0l-16.9-.6-4.7-.1-16.4-.4h0c-1.1 0-2.3-.1-3.4-.1l-15.7-.2h-3.2-.8l-16.3.1h0l-3.3.1-17.2.4-3.7.1-13.2.4-4.1.2-16 .6-4.2.2-18.5.6-4.7.1a412.57 412.57 0 0 1-15.5.3l-4.9.1h-10c-1.6 0-3.2-.1-4.8-.1-5.6-.1-10.9-.4-15.9-.7l-3.6-.3c-10.8-1-20-2.6-27-5.4-4.7-1.8-8.3-4-11-6.8-2.9-3.1-4.4-6.8-4.4-11.4v-.1-.9c.1-1.9.4-3.8 1-5.8.1-.5.3-1 .4-1.5.4-1.2.9-2.4 1.4-3.6.2-.4.3-.8.5-1.2.8-1.7 1.7-3.4 2.8-5.1.3-.5.6-.9.9-1.4 1.2-1.9 2.5-3.8 4-5.7l.9-1.2c1.2-1.5 2.5-3.1 3.9-4.7.4-.4.7-.9 1.1-1.3l3.3-3.6c.3-.4.7-.7 1.1-1.1l4.9-4.8 1-1 6.1-5.4c.3-.3.6-.5.9-.8l6-4.9c.4-.3.7-.6 1.1-.8l5.5-4.2c.6-.4 1.2-.9 1.8-1.3l4.8-3.4c.5-.4 1.1-.7 1.6-1.1 1.7-1.1 3.4-2.3 5.2-3.4l1.5-1c37.6-23.8 87.8-43 136.8-43 35.3.2 73.9 10.4 108.4 25.1z" fill="#b6d2da"/><path d="M438.9 291l-9.9 62.4h-44.2c-5.7 0-7-8-1.6-9.8l17.6-5.8 10.7-43.2c10.4-.6 19.7-1.8 27.4-3.6zm-64.8 4.6l-7.8 57.8h-44.2c-5.7 0-7-8-1.6-9.8l17.6-5.8 11.5-42.8 24.5.6zm-62.9-1.8l-8.1 59.6h-44.2c-5.7 0-7-8-1.6-9.8l17.6-5.8 12-44.9 24.3.9zm-63-1.4l-8.3 61.1h-44.2c-5.7 0-7-8-1.6-9.8l17.6-5.8 12.2-45.2 23.6-.3h.7zM180 294l-8.1 59.4h-44.2c-5.7 0-7-8-1.6-9.8l17.6-5.8 11.5-42.9 24.8-.9zm-66.6 1.5l-7.8 57.6H63.9c-6.1 0-7.5-8.6-1.7-10.5l15.2-5L89 294.3c7.4.7 15.6 1.1 24.4 1.2z" fill="#0c2b66"/><g fill="#4731d9"><path d="M405.9 198.8c-.5 2.2-3.1 6.5-4.8 9.7-2.5 5.1 5.9 8 8.2 3.3 5.5-8 8.9-22.4-3.3-29.2-6.3-4.7-9.4-3.7-13.6-3.3-5.5.6-20.5 17.4-12.8 21.4 6.6 2.5 7.5-9.6 14.7-12.8 7.9-1.7 13 3.9 11.6 10.9z"/><use xlink:href="#B"/><path d="M362.2 220.2c0 3.5-9 11.2-3.2 14.7 3.9 2.3 6.9-1.5 8.3-4.7.8-1.4 2.6-5.5 3.3-10.8 2.7-10.1-13.6-21.8-22-18.7-5.5.8-18.8 15.8-13.8 20.7 3.3 2.8 6.7-.5 7.9-3.6.9-1.6 4.2-6.7 7.8-8.5 8-1.7 13.1 3.9 11.7 10.9z"/><use xlink:href="#C"/><use xlink:href="#C" x="-42.7" y="-24.3"/><path d="M447.7 228c-.5 2.2-3.1 6.5-4.8 9.7-2.5 5.1 5.9 8 8.2 3.3 5.5-8 8.9-22.4-3.3-29.2-6.3-4.7-9.4-3.7-13.6-3.3-5.5.6-20.5 17.4-12.8 21.4 6.6 2.5 7.5-9.6 14.7-12.8 7.9-1.7 13 3.8 11.6 10.9z"/><use xlink:href="#B" x="38.9" y="21.4"/><path d="M291.7 293.2l-4.7-.1c-16.1-7.4-31.9-15.6-47.7-23.5-28.9-11.3-58.1-21.8-87.4-32.2-20-5.7-38.2-15.2-56.1-25.5.6-.4 1.2-.9 1.8-1.3 10.4 6.2 21 12.1 32.1 16.7 38.5 14.7 77.9 26.9 115.8 43.3 15.2 7.9 30.5 15.7 46.2 22.6zm-161.1 2.3l-4.9.1c-14.5-5.3-28.8-11.1-42.5-18.5-10.9-5.2-21.1-11.7-31.4-18.1.2-.4.3-.8.5-1.2l15.5 9.1c19.4 11.9 40.5 20.9 62 28.2.3.3.5.3.8.4zm20.3-.4l-4.7.1c-18.4-6.4-36.8-13-54.3-21.6-12.8-6-24.7-13.6-36.7-20.9.3-.5.6-.9.9-1.4 23.2 13.7 46 28 72 35.8l22.8 8zm-35.2.5c-1.6 0-3.2-.1-4.8-.1-7.9-3.1-15.7-6.4-23.3-10.2-12.9-6.5-25.2-13.9-37.6-21.2.1-.5.3-1 .4-1.5 3.6 2.2 7.1 4.3 10.6 6.2 17.2 10.9 35.7 19.6 54.7 26.8zm78-2.1l-4.1.2c-30.3-12.6-62.7-20.1-91.8-35.3-11.4-5.5-22.2-12.1-33-18.7.4-.4.7-.9 1.1-1.3 23.6 13.9 47 28.2 73.7 35.5l54.1 19.6zm121.9-5.9l-.1 1.5c-22.8-9.3-45.3-19.5-66.8-31.4-34-13.9-68.7-25.6-103.2-38-12.8-4.3-24.7-10.4-36.3-17.1l1.5-1c12.1 6.9 24.6 13.1 37.8 17.5 32.3 11.8 64.8 22.7 96.6 35.7 23.4 11.5 46.5 23.1 70.5 32.8zm-105 5.4l-3.7.1c-5.2-2-10.5-3.8-15.8-5.7-29.7-11.8-60.6-20.1-89.3-34.2-11.4-5.2-22-11.8-32.6-18.4.3-.4.7-.7 1.1-1.1 19.3 11.6 38.6 23.2 60.1 30.1l80.2 29.2zm-96-63.7c40.1 19.2 85.7 28.7 124.8 48.4l-114.9-42c-12.1-5.7-23.7-12.2-35.3-18.9.4-.3.7-.6 1.1-.8 8 4.7 16 9.3 24.3 13.3z"/><path d="M239.6 277.8h0c-.1 0-.2-.1-.2-.1.1 0 .2 0 .2.1zm8.9-13.7l-.3.6c-24.3-8.7-48.3-19.6-73-26.6-13.5-6.5-28.5-9.5-42-15.8-10.6-4.4-20.9-9.5-30.8-15.3.5-.4 1.1-.7 1.6-1.1 7.8 4.7 15.9 8.8 24.1 12.6 39.8 16.5 81.3 28.1 120.4 45.6zm-54.5 5.6c-27.3-10.3-55.5-18.3-81.9-30.6-10.1-5.2-20-10.9-29.9-16.7.3-.3.6-.5.9-.8 7.7 4.6 15.3 9.1 23.2 13 24 12.2 49.7 20.1 75 29.1 3.5 2 11.6 2.4 12.7 6zm-58.2-11.9h0zm95.4 34.7l-3.3.1c-17.9-7.2-36.3-13.8-54.4-20.6-9.4-2.3-17.7-7.3-27.1-9.6-3.2-1.6-8.5-1.6-10.5-4.6 18.1 4.8 35.5 12.7 53.4 18.6 13.5 5.8 28.5 9.7 41.9 16.1zm-57.7 1.8l-4.2.2c-20.5-7.3-41-14.7-60.7-23.4l61.3 22c1.2.3 2.4.8 3.6 1.2zm-109.1-5.2c-4.7-1.8-8.3-4-11-6.8 2.9 1.8 5.8 3.5 8.8 5.1.8.4 1.6.8 2.2 1.7zm187.1 3.3h-3.2c-3.9-2.1-7.7-4.2-11.6-6.1-13.6-6.3-28.5-10.1-42-16.6.1-.2.3-.5.4-.7 19.5 6.5 38.2 14.5 56.4 23.4z"/><path d="M304.1 291.2c-9.9-2.7-19.1-7.3-28.4-11.7-8.4-5.1-19.4-7.7-26.2-14.9l33.1 16.8c6.8 3.9 15.4 4.8 21.5 9.8h0zm-168.3-33.4c-1.2 1-2.5.3-3.4-.3-1.6-1.2-3.6-1-5.3-1.9-12.3-5.9-26.2-10.4-37-18.6 14.8 7.1 30.2 14.4 45.7 20.8h0z"/><path d="M89.2 237c-4.9-2.3-9.5-5.2-14.1-8.1l1-1 11.6 7.2c.8.4 1.6.7 1.5 1.9zm214.9 54.2s0 .1 0 0c0 .1 0 .1 0 0h0zm9.2 2.7l-4.6-.2c-1.6-.7-3.1-1.6-4.5-2.5 3.1.6 6.1 1.6 9.1 2.7zm-73.7-16.1h0 0 0zm31 14.8c-1.1 0-2.3-.1-3.4-.1-9.3-4.8-18.9-9-27.5-14.8 6.1.7 11 5.4 16.5 7.9 4.4 2.8 9.7 4.6 14.4 7zm-201-41.9a88.19 88.19 0 0 1-9.6-5.1l.9-1.2c3.1 1.8 6.1 3.8 8.7 6.3zm21.7 12.1c-7.5-2.6-14.8-7-21.2-11.8 7.1 3.4 14.3 7.7 21.2 11.8h0zm3.6 32l-3.6-.3c-2.9-1.1-5.7-2.2-7.4-4.3 3.6 0 7.4 3.1 11 4.6z"/><path d="M101.3 267.8c-3.5-.5-7.8-2.2-10-5h0c1.6-.4 2.8.8 4.1 1.3 2 1.1 4.4 1.9 5.9 3.7h0zm-33 13.9c-3.1.5-6.7-2.5-8.6-4.7 3.3.7 6.5 2.4 8.6 4.7h0z"/><path d="M101.3 267.8c2.1 1.1 6.1.6 6.9 3.1-2.2.2-5.4-1.3-6.9-3.1h0zm-49 4.7c2.1.2 5.4 2.3 6.4 3.9-1.4-.3-5.3-2.6-6.4-3.9zm28.5 15.7c-2.1-.1-4-1-5.5-2.5h0c2.3 0 3.9 1.3 5.5 2.5h0zm-29.6-16.4c-.9-.2-1.6-.5-2.2-1v-.9c1 .4 1.7.9 2.2 1.9z"/><path d="M75.3 285.8c-1.2 0-2.1-.5-3-1.4 2-.2 2-.2 3 1.4h0zm5.5 2.5l2.8.8c-1.8.7-1.8.7-2.8-.8h0zm-12.5-6.5c.4.2.8.3 1.4.5-1.1.8-1.2 0-1.4-.5h0zm2.8 1.7c-.1 0-.3.1-.4.1 0-.2 0-.5.3-.5.1.1.1.2.1.4zm252.3 10.8c0 .1-.1.1-.1.2-.1-.1-.1-.3 0-.4 0 0 .1.1.1.2z"/></g><path d="M283.9 254.6c0 1.8.3 3.6-.5 5.3-2.4-2.8-8 8.5-12.9 4.3-.6 1.7-2.7.2-3.4 1.7-1.2-1.3-9.3 1.8-5.3-1.3-1.2-.9-2.1.1-3.2.6-3.8-1.7-7.1-.3-7.9-6-.8-.2-.7.5-1.2.7-.3-2.1-3-1.6-3-4.3.4-2.5-4.3-2.5-1.6-4.8-1.6-.2-2.6-2-1.9-3.6-1.9.2-3.5-.7-1.9-2.8 1.4-2.2-2.6-6.3.5-8.2-3-.5 2.2-5.2-1.4-3-1.6-5.9-.5-11.6 1.3-17.9-.2-2.8 4.5-3.9 2.4-6.1 1-.8 2.7-.7 2.9-2.5 1.6 0 3.2-.3 3.3-2.4 1.6.2 1.5-2.1 3-2.2.6 0 1.1-.9 1.6-1.4.8.1.3 1 .9 1.4 1.9-1.8 4.7-1.4 6.7-2.4 1.2 2.1 4.6 1.8 6.8 1.6 1 .4.6 1.2 1.1 1.7 2.4-.6 3.1 2 4.9 2.8 1.6 3.4-2.5 5.5-1.8 9-.4.7-1.3.1-1.6 1 1.5 4.4 1.2 10.3-.1 15 3 5.9 4.1 11.8 6.9 17.3 1.9 1.1 3.5 1.8 3.8 3.9 1.6.1 1.5 1.3 1.6 2.6zm-99.6 2.8c-3.2 6 2.1 5.9-5.7 7.2 3.3 2-1.5 2.4-3.1 3.9-1.9-1.7-3.2-.5-4.2.8-4.7-1.6-3 1.7-7.4 1.7 2.2-3.6-2.9 1.3-2.8-3.1-.9.4-1.5 1-2.1 1.9-.4-1.2-.4-2.3-1.7-2.6-2.5 1.9-4.4-1.5-6.8-1.1-.6-.6.3-.9.2-1.3-1.1-1.2-1.6.8-2.5.4-1.1 0-.6-1-1-1.4-3.1 1.1.1-5-3.9-5.8-.2-1.9.3-5.2-2.4-3.2-1.1-1.2 1.2-1.8.6-2.6-3.2-1 1.4-1.4-2.6-2.7.8-.8 3.1-4 .3-2.4-.2 0-.3-.1-.3-.3-1-2.1 2-3.6.5-5.6-1.9-2.1 2.3-4.3-.5-6.6 3.4-2-.2-6.7 2.4-8.7-1.3-2.7.7-4.1 2.5-6.8-1.8-1.5.9-2.9.2-4.6 3.3-.3 3.4-4.6 6.6-4.6 3-2.8 6-2.2 8.3-4.9 2-.9 4.6 3 6.1-1.1 1.5 1.1 4.6 5.3 5.2 1.8 3.2.6 1.5 5.8 4.8 3.6.5 2.7 3.8 1.9.7 5.3-.5 3.9-4.4 7.4-3.3 11.5-.3.8-1.2 0-1.5.8 2 .6.2 1.7.4 2.7.2 1.1.7 2.8.4 3.2-2.5 4.6 3.7 8.8 2.7 13.8.4.8 1.2.3 1.6.9-.2 2.4 2.3 3.3 2.9 5.3 2-1.5 2.7-.1 2.5 1.9 1.7-.2 1.9 1.7 2.9 2.7z" fill="#fff"/><path d="M184.3 257.4c-1-1-1.2-2.9-3.3-2.7.2-2-.5-3.4-2.5-1.9-.6-2.1-3-3-2.9-5.3-.4-.6-1.2-.1-1.6-.9 1.1-5-5.2-9.2-2.7-13.8.3-.4-.2-2.1-.4-3.2-.2-.9 1.6-2.1-.4-2.7.4-.8 1.3-.1 1.5-.8-.7-4.6 2.9-9.5 4.5-13.5 3.6.7 3.6 4.1 6.5 4.5.6 1.7.2 1.9 2 3-.1 2 .2 4 1.6 5.6.1.8-1.4 4.1.5 2.4 1.1 1.2-.2 1.7-.2 2.5 4.9 1.2 3.7 31-2.6 26.8zm99.6-2.8c-.1-1.3 0-2.4-1.6-2.6-.2-2.1-1.9-2.8-3.8-3.9-2.8-5.5-3.9-11.4-6.9-17.3 1.3-4.7 1.6-10.5.1-15 2.3-1.6 2-5.2 4-8-.7-.8-1.2-2.1.6-2.5 2.2 2.2 3.2 1.9 3.1 5.4 2.4-.1 1.9 2.6 4 3.1-2 2.6 2.4 2.3 1.3 5.3 1 .5 2.6.7 1.7 2.5 3.8 5.8 5.1 30.2-2.5 33z" fill="#090101"/><defs ><path id="B" d="M400.1 244.5c-.5 2.2-3.1 6.5-4.8 9.7-2.5 5.1 5.9 8 8.2 3.3 5.5-8 8.9-22.4-3.3-29.2-11.1-8.5-20.1-1.4-25.6 7.4-1.4 3-5.2 7-1.8 10 7.2 4.8 8.4-9.1 15.7-12.1 7.9-1.7 13 3.8 11.6 10.9z"/><path id="C" d="M395.2 287.2c-.5 2.2-3.1 6.5-4.8 9.7-2.5 5.1 5.9 8 8.2 3.3 5.5-8 8.9-22.4-3.3-29.2-11.1-8.5-20.1-1.4-25.6 7.4-1.4 3-5.2 7-1.8 10 7.2 4.8 8.4-9.1 15.7-12.1 7.9-1.7 13 3.9 11.6 10.9z"/></defs></svg>